HIERARCHY
ROOT Hips
{
	OFFSET 0.000000 0.000000 0.000000
	CHANNELS 6 Xposition Yposition Zposition Zrotation Yrotation Xrotation 
	JOINT LeftUpLeg_virtual
	{
		OFFSET 0.000000 0.000000 0.000000
		CHANNELS 3 Zrotation Yrotation Xrotation
		JOINT LeftUpLeg
		{
			OFFSET 8.479694 -4.795517 -0.379053
			CHANNELS 3 Zrotation Yrotation Xrotation
			JOINT LeftLeg
			{
				OFFSET 0.485052 -32.551468 0.112863
				CHANNELS 3 Zrotation Yrotation Xrotation
				JOINT LeftFoot
				{
					OFFSET 0.438033 -32.635670 -3.012641
					CHANNELS 3 Zrotation Yrotation Xrotation
					JOINT LeftToeBase
					{
						OFFSET 0.970169 -13.225353 11.864223
						CHANNELS 3 Zrotation Yrotation Xrotation
						End Site
						{
							OFFSET 0.000000 0.000000 0.000000
						}
					}
				}
			}
		}
	}
	JOINT RightUpLeg_virtual
	{
		OFFSET 0.000000 0.000000 0.000000
		CHANNELS 3 Zrotation Yrotation Xrotation
		JOINT RightUpLeg
		{
			OFFSET -8.479694 -4.795517 -0.379053
			CHANNELS 3 Zrotation Yrotation Xrotation
			JOINT RightLeg
			{
				OFFSET -0.484100 -32.551483 0.112903
				CHANNELS 3 Zrotation Yrotation Xrotation
				JOINT RightFoot
				{
					OFFSET -0.438985 -32.635651 -3.012681
					CHANNELS 3 Zrotation Yrotation Xrotation
					JOINT RightToeBase
					{
						OFFSET -0.970169 -13.225354 11.864223
						CHANNELS 3 Zrotation Yrotation Xrotation
						End Site
						{
							OFFSET 0.000000 0.000000 0.000000
						}
					}
				}
			}
		}
	}
	JOINT Spine_virtual
	{
		OFFSET 0.000000 0.000000 0.000000
		CHANNELS 3 Zrotation Yrotation Xrotation
		JOINT Spine
		{
			OFFSET 0.000000 7.722015 1.166203
			CHANNELS 3 Zrotation Yrotation Xrotation
			JOINT Spine1
			{
				OFFSET 0.000000 12.024086 0.248766
				CHANNELS 3 Zrotation Yrotation Xrotation
				JOINT Spine2
				{
					OFFSET -0.000000 11.503036 -0.491240
					CHANNELS 3 Zrotation Yrotation Xrotation
					JOINT Neck_virtual
					{
						OFFSET 0.000000 0.000000 0.000000
						CHANNELS 3 Zrotation Yrotation Xrotation
						JOINT Neck
						{
							OFFSET 0.000000 18.430687 -3.123054
							CHANNELS 3 Zrotation Yrotation Xrotation
							JOINT Head
							{
								OFFSET -0.000000 9.051071 1.034021
								CHANNELS 3 Zrotation Yrotation Xrotation
								End Site
								{
									OFFSET 0.000000 0.000000 0.000000
								}
							}
						}
					}
					JOINT LeftShoulder_virtual
					{
						OFFSET 0.000000 0.000000 0.000000
						CHANNELS 3 Zrotation Yrotation Xrotation
						JOINT LeftShoulder
						{
							OFFSET 6.197824 13.665230 -4.064723
							CHANNELS 3 Zrotation Yrotation Xrotation
							JOINT LeftArm
							{
								OFFSET 7.778132 -0.187073 -1.709282
								CHANNELS 3 Zrotation Yrotation Xrotation
								JOINT LeftForeArm
								{
									OFFSET 21.954697 0.000000 -2.041093
									CHANNELS 3 Zrotation Yrotation Xrotation
									JOINT LeftHand
									{
										OFFSET 22.992908 0.000000 -0.870901
										CHANNELS 3 Zrotation Yrotation Xrotation
										End Site
										{
											OFFSET 0.000000 0.000000 0.000000
										}
									}
								}
							}
						}
					}
					JOINT RightShoulder_virtual
					{
						OFFSET 0.000000 0.000000 0.000000
						CHANNELS 3 Zrotation Yrotation Xrotation
						JOINT RightShoulder
						{
							OFFSET -6.197824 13.665230 -4.064723
							CHANNELS 3 Zrotation Yrotation Xrotation
							JOINT RightArm
							{
								OFFSET -7.778132 -0.187073 -1.709282
								CHANNELS 3 Zrotation Yrotation Xrotation
								JOINT RightForeArm
								{
									OFFSET -21.954697 0.000000 -2.041093
									CHANNELS 3 Zrotation Yrotation Xrotation
									JOINT RightHand
									{
										OFFSET -22.992908 0.000000 -0.870901
										CHANNELS 3 Zrotation Yrotation Xrotation
										End Site
										{
											OFFSET 0.000000 0.000000 0.000000
										}
									}
								}
							}
						}
					}
				}
			}
		}
	}
}
MOTION
Frames: 4
Frame Time: 0.033333
-17.222548 81.186340 -26.406288 179.982984 -3.986845 -179.893987 -2.914806 -0.399062 16.267192 4.119547 -1.737013 -22.083450 1.364208 1.249163 28.312314 -1.980636 -9.882456 -17.442490 0.000000 0.000000 0.000000 1.968296 -1.373231 17.398177 -3.868395 -0.281517 -24.229778 -0.559761 6.310354 30.787672 11.829688 1.354176 -14.334593 0.000000 0.000000 0.000000 2.080335 2.352418 3.524152 -0.585275 -1.498941 -7.165703 -0.095937 -2.485826 6.915091 -0.030185 -0.009081 0.018760 -0.192162 -1.172434 6.922842 -1.616682 2.632345 -5.292282 0.000000 0.000000 0.000000 1.516772 -0.344394 4.175255 -11.894354 -3.605072 4.163220 -50.278177 -15.713752 8.824732 1.987017 -33.079258 3.326217 0.000000 0.000000 0.000000 -3.014717 1.125723 3.558578 30.260101 3.420452 10.424127 43.356350 9.002512 -3.174562 -2.291678 25.214765 -2.264095 0.000000 0.000000 0.000000 
-17.168234 81.190582 -26.419634 -179.997532 -3.892513 -179.820945 -2.986428 -0.315204 16.342537 3.931407 -1.497279 -21.973362 1.044102 1.248062 28.487701 -2.348285 -10.422817 -18.013410 0.000000 0.000000 0.000000 1.948472 -1.529148 17.456157 -3.735971 -0.400923 -24.132911 -0.745034 6.066287 31.008348 11.757655 1.164583 -14.918460 0.000000 0.000000 0.000000 2.116119 2.287344 3.437189 -0.563623 -1.408308 -7.227276 -0.076156 -2.477117 6.873447 -0.016638 -0.018687 0.018318 -0.223042 -0.934641 6.970902 -1.515757 2.573916 -5.284595 0.000000 0.000000 0.000000 1.419036 -0.320760 4.203196 -11.940223 -3.602145 4.234946 -50.751427 -15.570620 9.433030 2.072664 -33.032485 3.242679 0.000000 0.000000 0.000000 -3.039085 1.133818 3.619097 30.421792 3.548304 10.486394 43.783459 9.017484 -1.282783 -2.147432 25.546388 -2.164846 0.000000 0.000000 0.000000 
-17.126118 81.174706 -26.477793 179.994814 -3.880779 -179.812981 -3.000492 -0.318717 16.367025 4.014973 -1.545761 -21.958800 1.010709 1.312411 28.472132 -2.370962 -10.417235 -18.028033 0.000000 0.000000 0.000000 1.914550 -1.570275 17.479740 -3.665305 -0.424980 -24.170216 -0.745672 6.076899 31.066108 11.825953 1.123982 -14.870022 0.000000 0.000000 0.000000 2.096283 2.270291 3.398132 -0.504393 -1.323188 -7.284970 -0.061603 -2.457420 6.883297 0.008362 0.002324 0.056198 -0.308488 -0.971184 6.969291 -1.489129 2.622704 -5.283105 0.000000 0.000000 0.000000 1.345415 -0.394698 4.234265 -12.049565 -3.671995 4.269064 -51.479805 -15.443807 10.586760 2.126113 -32.728682 3.157048 0.000000 0.000000 0.000000 -3.073405 1.088568 3.501799 30.530498 3.736417 10.607947 44.405775 8.894315 2.420005 -2.031691 26.363014 -2.092643 0.000000 0.000000 0.000000 
-17.095652 81.156303 -26.571671 179.993762 -3.971338 -179.796397 -3.007129 -0.286047 16.418607 4.122330 -1.605053 -21.984461 0.941364 1.331716 28.441758 -2.401404 -10.424963 -18.045450 0.000000 0.000000 0.000000 1.900747 -1.524626 17.541898 -3.560048 -0.493841 -24.261013 -0.797970 6.049348 31.163063 11.926770 1.057735 -14.832944 0.000000 0.000000 0.000000 2.077663 2.276176 3.391364 -0.461205 -1.306413 -7.378199 0.008553 -2.494905 6.880851 0.011962 -0.012623 0.035085 -0.272873 -0.997720 7.059776 -1.344308 2.692519 -5.259190 0.000000 0.000000 0.000000 1.337033 -0.325955 4.288651 -12.235230 -3.710673 4.343182 -52.373880 -15.326653 12.090735 2.046626 -32.489615 3.272597 0.000000 0.000000 0.000000 -3.112683 1.100843 3.597986 30.559612 4.059691 10.738623 45.175940 8.776958 6.886068 -1.898995 27.396662 -2.051093 0.000000 0.000000 0.000000 
